# xmcd
#
# Track frame offsets:
#	150
#	27324
#	47123
#	76589
#	104587
#	150969
#	168654
#	197116
#	218432
#	244083
#	265756
#	292939
#
# Disc length: 4392 seconds
#
# Revision: 1
# Processed by: cddbd v1.5.2PL0 Copyright (c) Steve Scherf et al.
# Submitted via: audiograbber 1.83.01
#
DISCID=9711260c
DTITLE=Abies alba - Musiche e canti dal Trentino
DYEAR=2006
DGENRE=volksmusik
TTITLE0=La Dragona - Ballo la Vienna Corentina - La Pollacina
TTITLE1=Paris di Emilio - La bella inglesina
TTITLE2=Alphorn - Smolfrina - Bal fascian - Manfrina
TTITLE3=El pù bel nom - L'Ambasciatore
TTITLE4=Povero disertore - Gorizia - Bella ciao
TTITLE5=Limone Limonato
TTITLE6=Paris di Daone - Pairisiola - Sotì - Paris tesina
TTITLE7=La serva
TTITLE8=Valzer del sabo - Valsugana express
TTITLE9=La Rosina innamorata
TTITLE10=Me comparo Giacometo - Quatro ciodi de fero vecio - Paris polca - Salt
TTITLE10=ini
TTITLE11=La Merica
EXTD=
EXTT0=
EXTT1=
EXTT2=
EXTT3=
EXTT4=
EXTT5=
EXTT6=
EXTT7=
EXTT8=
EXTT9=
EXTT10=
EXTT11=
PLAYORDER=
